<svg xmlns="http://www.w3.org/2000/svg" version="1.1" xmlns:xlink="http://www.w3.org/1999/xlink" xmlns:svgjs="http://svgjs.dev/svgjs" width="1500" height="1500" viewBox="0 0 1500 1500"><rect width="1500" height="1500" fill="#ffffff"></rect><g transform="matrix(0.6666666666666666,0,0,0.6666666666666666,249.39393939393943,663.0939847694519)"><svg viewBox="0 0 396 68" data-background-color="#ffffff" preserveAspectRatio="xMidYMid meet" height="257" width="1500" xmlns="http://www.w3.org/2000/svg" xmlns:xlink="http://www.w3.org/1999/xlink"><g id="tight-bounds" transform="matrix(1,0,0,1,0.2400000000000091,0.49188153119030176)"><svg viewBox="0 0 395.52 67.01623693761938" height="67.01623693761938" width="395.52"><g><svg viewBox="0 0 518.3250764553644 87.82412048554404" height="67.01623693761938" width="395.52"><g><rect width="5.730875412357961" height="76.25828117413376" x="102.07190938761916" y="5.782919655705143" fill="#566971" opacity="1" stroke-width="0" stroke="transparent" fill-opacity="1" class="rect-yte-0" data-fill-palette-color="primary" rx="1%" id="yte-0" data-palette-color="#566971"></rect></g><g transform="matrix(1,0,0,1,122.80507645536446,12.13777642021629)"><svg viewBox="0 0 395.52 63.54856764511146" height="63.54856764511146" width="395.52"><g id="textblocktransform"><svg viewBox="0 0 395.52 63.54856764511146" height="63.54856764511146" width="395.52" id="textblock"><g><svg viewBox="0 0 395.52 63.54856764511146" height="63.54856764511146" width="395.52"><g transform="matrix(1,0,0,1,0,0)"><svg width="395.52" viewBox="4 -35.7 226.54 36.400000000000006" height="63.54856764511146" data-palette-color="#566971"><path d="M33.2-16.6L23.95-16.6 23.95-17.8 36.6-17.8 36.6-4.2Q34.3-1.9 30.98-0.6 27.65 0.7 23.55 0.7L23.55 0.7Q19.35 0.7 15.8-0.68 12.25-2.05 9.6-4.53 6.95-7 5.48-10.3 4-13.6 4-17.5L4-17.5Q4-21.4 5.48-24.7 6.95-28 9.6-30.48 12.25-32.95 15.8-34.33 19.35-35.7 23.55-35.7L23.55-35.7Q25.35-35.7 27.48-35.45 29.6-35.2 31.55-34.77 33.5-34.35 34.85-33.75L34.85-33.75 34.6-30.95 34.3-30.95Q32.3-32.7 29.5-33.6 26.7-34.5 23.55-34.5L23.55-34.5Q18.85-34.5 15.3-32.38 11.75-30.25 9.78-26.43 7.8-22.6 7.8-17.5L7.8-17.5Q7.8-12.4 9.78-8.58 11.75-4.75 15.3-2.63 18.85-0.5 23.55-0.5L23.55-0.5Q26.45-0.5 28.93-1.3 31.4-2.1 33.2-3.6L33.2-3.6 33.2-16.6ZM51.4-18.6L51.4-18.6 50.3-18.6 50.3-19.8 51.2-19.8Q54.95-19.8 57.12-21.68 59.3-23.55 59.3-27.2L59.3-27.2Q59.3-30.55 57.52-32.52 55.75-34.5 52.8-34.5L52.8-34.5Q50.85-34.5 48.75-33.65 46.65-32.8 45.2-31.35L45.2-31.35 44.9-31.35 44.65-34Q46.25-34.75 48.45-35.23 50.65-35.7 52.8-35.7L52.8-35.7Q57.4-35.7 60.15-33.43 62.9-31.15 62.9-27.45L62.9-27.45Q62.9-24.45 61-22.35 59.1-20.25 55.5-19.4L55.5-19.4 55.5-19.1Q59.75-18.3 62.12-15.73 64.5-13.15 64.5-9.35L64.5-9.35Q64.5-6.3 63.02-4.05 61.55-1.8 58.92-0.55 56.3 0.7 52.8 0.7L52.8 0.7Q50.65 0.7 48.4 0.2 46.15-0.3 44.4-1.1L44.4-1.1 44.1-4.1 44.4-4.1Q46.25-2.35 48.42-1.43 50.6-0.5 52.8-0.5L52.8-0.5Q56.45-0.5 58.62-2.95 60.8-5.4 60.8-9.5L60.8-9.5Q60.8-13.65 58.25-16.13 55.7-18.6 51.4-18.6ZM77.4 0L74 0 75.25-35.7 75.84-35.7 101-5.3 101.3-5.3 100.2-35 103.59-35 102.34 0.7 101.75 0.7 76.59-29.7 76.3-29.7 77.4 0ZM131.24 0L115.84 0 115.84-35 131.09-35 131.09-32.55 122.34-33.7Q120.04-34 119.24-34L119.24-34 119.24-18.75Q119.89-18.75 122.34-18.9L122.34-18.9 130.54-19.4 130.54-17.1 122.34-17.6Q119.89-17.75 119.24-17.75L119.24-17.75 119.24-1Q120.14-1 122.39-1.3L122.39-1.3 131.24-2.45 131.24 0ZM140.84 0L136.84 0 149.74-17.45 137.84-35 141.84-35 151.69-20.45 151.99-20.45 160.54-35 164.54-35 152.54-19.15 165.54 0 161.54 0 150.59-16.15 150.29-16.15 140.84 0ZM172.84-14L172.84-35 176.24-35 176.24-13.9Q176.24-7.85 179.21-4.48 182.19-1.1 187.59-1.1L187.59-1.1Q190.99-1.1 193.51-2.43 196.04-3.75 197.41-6.1 198.79-8.45 198.69-11.5L198.69-11.5 197.84-35 201.24-35 200.39-11.5Q200.19-5.5 196.81-2.4 193.44 0.7 187.19 0.7L187.19 0.7Q180.44 0.7 176.64-3.23 172.84-7.15 172.84-14L172.84-14ZM210.19-1.1L210.19-1.1 210.49-4.1 210.79-4.1Q212.74-2.4 215.19-1.45 217.64-0.5 220.04-0.5L220.04-0.5Q223.44-0.5 225.54-2.38 227.64-4.25 227.64-7.4L227.64-7.4Q227.64-9.15 226.86-10.65 226.09-12.15 224.31-13.7 222.54-15.25 219.44-17.05L219.44-17.05Q217.29-18.3 215.34-19.68 213.39-21.05 212.14-22.88 210.89-24.7 210.89-27.25L210.89-27.25Q210.89-31.05 213.64-33.38 216.39-35.7 220.89-35.7L220.89-35.7Q222.89-35.7 225.19-35.27 227.49-34.85 228.74-34.2L228.74-34.2 228.49-31.4 228.19-31.4Q225.34-34.5 220.89-34.5L220.89-34.5Q217.69-34.5 215.74-32.88 213.79-31.25 213.79-28.5L213.79-28.5Q213.79-26.45 214.86-24.98 215.94-23.5 217.64-22.33 219.34-21.15 221.29-20.05L221.29-20.05Q223.54-18.75 225.66-17.3 227.79-15.85 229.16-13.83 230.54-11.8 230.54-8.75L230.54-8.75Q230.54-5.95 229.24-3.83 227.94-1.7 225.56-0.5 223.19 0.7 220.04 0.7L220.04 0.7Q218.04 0.7 215.34 0.2 212.64-0.3 210.19-1.1Z" opacity="1" transform="matrix(1,0,0,1,0,0)" fill="#566971" class="wordmark-text-0" data-fill-palette-color="primary" id="text-0"></path></svg></g></svg></g></svg></g></svg></g><g><svg viewBox="0 0 87.06961773223182 87.82412048554404" height="87.82412048554404" width="87.06961773223182"><g><svg xmlns="http://www.w3.org/2000/svg" xmlns:xlink="http://www.w3.org/1999/xlink" version="1.1" x="0" y="0" viewBox="21.2 20.9 57.7 58.199999999999996" enable-background="new 0 0 100 100" xml:space="preserve" height="87.82412048554404" width="87.06961773223182" class="icon-icon-0" data-fill-palette-color="accent" id="icon-0"><g fill="#3450a3" data-fill-palette-color="accent"><path d="M58.7 79.1H74.3C76.8 79.1 78.9 77 78.9 74.5V41.2C78.9 38.7 76.8 36.6 74.3 36.6H58.7C56.2 36.6 54.1 38.7 54.1 41.2V74.5C54.2 77.1 56.2 79.1 58.7 79.1M66.5 77.8C65.5 77.8 64.7 77 64.7 76S65.5 74.2 66.5 74.2 68.3 75 68.3 76 67.5 77.8 66.5 77.8M57.7 42.9H75.4V72.9H57.7zM25.5 27.2H58.2V33.2H62.5V25.6C62.5 23.7 61.3 22 59.6 21.3 59 21.1 58.4 20.9 57.8 20.9H25.9C25.3 20.9 24.6 21 24.1 21.3 22.4 22 21.2 23.7 21.2 25.6V74.4C21.2 77 23.3 79.1 25.9 79.1H52.2C51.3 77.8 50.8 76.2 50.8 74.5V71.8H25.4zM41.7 73.8C42.7 73.8 43.5 74.6 43.5 75.6S42.7 77.4 41.7 77.4 39.9 76.6 39.9 75.6 40.8 73.8 41.7 73.8" fill="#3450a3" data-fill-palette-color="accent"></path></g></svg></g></svg></g></svg></g><defs></defs></svg><rect width="395.52" height="67.01623693761938" fill="none" stroke="none" visibility="hidden"></rect></g></svg></g></svg>